<svg width="22" height="16" viewBox="0 0 22 16" fill="none" xmlns="http://www.w3.org/2000/svg">
<path d="M14.872 0.305065C14.6734 0.113587 14.4077 0.00743013 14.1318 0.00930168C13.856 0.0111732 13.5918 0.120925 13.3958 0.31508C13.1998 0.509235 13.0876 0.772375 13.0831 1.04821C13.0787 1.32405 13.1823 1.59068 13.372 1.79107L18.145 6.56407H1.48695C1.34866 6.5634 1.21161 6.59017 1.08374 6.64281C0.955859 6.69546 0.839689 6.77294 0.741949 6.87077C0.64421 6.9686 0.566839 7.08485 0.514315 7.21278C0.461791 7.3407 0.435157 7.47778 0.435952 7.61607C0.434765 7.75512 0.461031 7.89305 0.513244 8.02194C0.565457 8.15083 0.64259 8.26815 0.740224 8.36718C0.837858 8.46621 0.954074 8.545 1.08221 8.59903C1.21035 8.65306 1.34789 8.68128 1.48695 8.68207H18.144L13.371 13.4411C13.1759 13.642 13.0669 13.911 13.0669 14.1911C13.0669 14.4711 13.1759 14.7401 13.371 14.9411C13.4688 15.0407 13.5855 15.1199 13.7143 15.1739C13.843 15.228 13.9813 15.2558 14.121 15.2558C14.2606 15.2558 14.3989 15.228 14.5276 15.1739C14.6564 15.1199 14.7731 15.0407 14.871 14.9411L21.446 8.36607C21.5456 8.26965 21.6248 8.15419 21.6789 8.02655C21.733 7.89891 21.7608 7.7617 21.7608 7.62307C21.7608 7.48443 21.733 7.34722 21.6789 7.21958C21.6248 7.09194 21.5456 6.97648 21.446 6.88007L14.872 0.305065Z" fill="white"/>
</svg>
